<svg width="26" height="33" viewBox="0 0 26 33" fill="none" xmlns="http://www.w3.org/2000/svg">
<path d="M24.4632 7.60321H1.53637C0.831766 7.60321 0.259766 6.87721 0.259766 5.98291C0.259766 5.08861 0.831766 4.36261 1.53637 4.36261H24.4632C25.1678 4.36261 25.7398 5.08861 25.7398 5.98291C25.7398 6.87721 25.1678 7.60321 24.4632 7.60321Z" fill="white"/>
<path d="M24.4632 18.1203H1.53637C0.831766 18.1203 0.259766 17.3943 0.259766 16.5C0.259766 15.6057 0.831766 14.8797 1.53637 14.8797H24.4632C25.1678 14.8797 25.7398 15.6057 25.7398 16.5C25.7398 17.3943 25.1678 18.1203 24.4632 18.1203Z" fill="white"/>
<path d="M24.4632 28.6374H1.53637C0.831766 28.6374 0.259766 27.9114 0.259766 27.0171C0.259766 26.1228 0.831766 25.3968 1.53637 25.3968H24.4632C25.1678 25.3968 25.7398 26.1228 25.7398 27.0171C25.7398 27.9114 25.1678 28.6374 24.4632 28.6374Z" fill="white"/>
</svg>
