<svg width="225" height="26" viewBox="0 0 225 26" fill="none" xmlns="http://www.w3.org/2000/svg">
<path d="M18.8076 25.6309C18.8428 25.666 18.8779 25.7012 18.9131 25.7363C18.9482 25.7598 18.9717 25.7773 18.9834 25.7891C19.0186 25.8125 19.0596 25.8359 19.1064 25.8594C19.1416 25.8828 19.165 25.9004 19.1768 25.9121C19.2119 25.9238 19.2588 25.9414 19.3174 25.9648C19.3643 25.9766 19.3877 25.9824 19.3877 25.9824C19.458 25.9941 19.5283 26 19.5986 26C19.6572 26 19.7217 25.9941 19.792 25.9824C19.8037 25.9824 19.8271 25.9766 19.8623 25.9648C19.9092 25.9531 19.9502 25.9414 19.9854 25.9297C20.0088 25.918 20.0322 25.9062 20.0557 25.8945C20.0908 25.8828 20.126 25.8652 20.1611 25.8418C20.1846 25.8301 20.2021 25.8184 20.2139 25.8066C20.2607 25.7715 20.2725 25.7598 20.249 25.7715C20.2256 25.7949 20.2432 25.7832 20.3018 25.7363C20.3369 25.7012 20.3604 25.6777 20.3721 25.666C20.3955 25.6426 20.4189 25.6133 20.4424 25.5781C20.4658 25.543 20.4834 25.5137 20.4951 25.4902C20.5186 25.4668 20.5361 25.4375 20.5479 25.4023C20.5596 25.3672 20.5713 25.3379 20.583 25.3145C20.5947 25.291 20.6064 25.2559 20.6182 25.209C20.6299 25.1738 20.6357 25.1445 20.6357 25.1211C20.6475 25.0859 20.6533 25.0508 20.6533 25.0156C20.6533 24.9453 20.6533 24.9219 20.6533 24.9453V1.79492C20.6533 1.50195 20.5537 1.25586 20.3545 1.05664C20.1436 0.845703 19.8916 0.740234 19.5986 0.740234C19.3174 0.740234 19.0713 0.845703 18.8604 1.05664C18.6611 1.25586 18.5615 1.50195 18.5615 1.79492V21.8691L2.45996 1.14453C2.15527 0.746094 1.7627 0.628906 1.28223 0.792969C0.813477 0.957031 0.579102 1.29102 0.579102 1.79492V24.9453C0.579102 25.2383 0.68457 25.4844 0.895508 25.6836C1.09473 25.8945 1.34082 26 1.63379 26C1.92676 26 2.17285 25.8945 2.37207 25.6836C2.58301 25.4844 2.68848 25.2383 2.68848 24.9453V4.87109L18.7725 25.5957C18.7725 25.5957 18.7783 25.6016 18.79 25.6133C18.8018 25.625 18.8076 25.6309 18.8076 25.6309ZM38.3896 2.88477C41.2842 2.88477 43.7568 3.91602 45.8076 5.97852C47.8701 8.0293 48.9014 10.502 48.9014 13.3965C48.9014 16.291 47.8701 18.7637 45.8076 20.8145C43.7568 22.8652 41.2842 23.8906 38.3896 23.8906C35.4951 23.8906 33.0225 22.8652 30.9717 20.8145C28.9209 18.7637 27.8955 16.291 27.8955 13.3965C27.8955 10.502 28.9209 8.0293 30.9717 5.97852C33.0225 3.91602 35.4951 2.88477 38.3896 2.88477ZM38.3896 26C41.8701 26 44.8408 24.7695 47.3018 22.3086C49.7627 19.8477 50.9932 16.877 50.9932 13.3965C50.9932 9.91602 49.7627 6.94531 47.3018 4.48438C44.8408 2.02344 41.8701 0.792969 38.3896 0.792969C34.9092 0.792969 31.9385 2.02344 29.4775 4.48438C27.0166 6.94531 25.7861 9.91602 25.7861 13.3965C25.7861 16.877 27.0166 19.8477 29.4775 22.3086C31.9385 24.7695 34.9092 26 38.3896 26ZM71.7705 18.4941C71.8525 16.7129 71.2666 15.1602 70.0127 13.8359C68.4893 12.2188 66.292 11.3867 63.4209 11.3398H63.333C61.6221 11.3164 60.4033 10.9238 59.6768 10.1621C59.2197 9.66992 59.0029 9.11914 59.0264 8.50977C59.0732 7.51367 59.4893 6.66992 60.2744 5.97852C61.0713 5.28711 62.0205 4.94141 63.1221 4.94141C64.2002 4.94141 65.1553 5.13477 65.9873 5.52148C66.9365 5.9668 67.5166 6.58203 67.7275 7.36719C67.8682 7.91797 68.1846 8.33984 68.6768 8.63281C69.1689 8.91406 69.6904 8.98438 70.2412 8.84375C70.792 8.70312 71.208 8.38672 71.4893 7.89453C71.7822 7.40234 71.8584 6.88086 71.7178 6.33008C71.2256 4.45508 70.0713 3.02539 68.2549 2.04102C66.7432 1.2207 65.0322 0.810547 63.1221 0.810547C60.9072 0.810547 59.0088 1.53711 57.4268 2.99023C55.8447 4.44336 55.0068 6.22461 54.9131 8.33398C54.8311 10.1035 55.417 11.6562 56.6709 12.9922C58.1943 14.5977 60.3916 15.4238 63.2627 15.4707C63.2744 15.4707 63.2861 15.4707 63.2979 15.4707C63.2744 15.4707 63.2861 15.4707 63.333 15.4707H63.3506C65.0615 15.4941 66.2803 15.8926 67.0068 16.666C67.4639 17.1465 67.6807 17.6914 67.6572 18.3008C67.6104 19.3086 67.1885 20.1523 66.3916 20.832C65.6064 21.5234 64.6631 21.8691 63.5615 21.8691C62.4834 21.8691 61.5225 21.6758 60.6787 21.2891C59.7412 20.8438 59.167 20.2285 58.9561 19.4434C58.8154 18.8926 58.499 18.4707 58.0068 18.1777C57.5146 17.8965 56.9932 17.8262 56.4424 17.9668C55.8916 18.1074 55.4697 18.4238 55.1768 18.916C54.8955 19.4082 54.8252 19.9297 54.9658 20.4805C55.458 22.3555 56.6123 23.7852 58.4287 24.7695C59.9404 25.5898 61.6514 26 63.5615 26C65.7646 26 67.6631 25.2734 69.2568 23.8203C70.8389 22.3672 71.6768 20.5918 71.7705 18.4941ZM79.7861 26C80.3604 26 80.8467 25.7949 81.2451 25.3848C81.6553 24.9863 81.8604 24.5 81.8604 23.9258V2.95508C81.8604 2.38086 81.6553 1.89453 81.2451 1.49609C80.8467 1.08594 80.3604 0.880859 79.7861 0.880859C79.2119 0.880859 78.7256 1.08594 78.3271 1.49609C77.917 1.89453 77.7119 2.38086 77.7119 2.95508V23.9258C77.7119 24.5 77.917 24.9863 78.3271 25.3848C78.7256 25.7949 79.2119 26 79.7861 26ZM100.511 25.9297C102.573 25.9297 104.524 25.4492 106.364 24.4883C106.481 24.9219 106.722 25.2793 107.085 25.5605C107.46 25.8535 107.882 26 108.351 26H108.368C108.942 26 109.429 25.7949 109.827 25.3848C110.237 24.9863 110.442 24.5 110.442 23.9258L110.495 12.7812C110.495 12.207 110.29 11.7148 109.88 11.3047C109.47 10.8945 108.978 10.6895 108.403 10.6895H99.4385C98.8525 10.6895 98.3604 10.8945 97.9619 11.3047C97.5518 11.7148 97.3467 12.207 97.3467 12.7812C97.3467 13.3555 97.5518 13.8477 97.9619 14.2578C98.3604 14.6562 98.8525 14.8555 99.4385 14.8555H106.312L106.294 19.4609C106.235 19.5078 106.194 19.543 106.171 19.5664C104.565 21.0312 102.679 21.7637 100.511 21.7637C98.1904 21.7637 96.2041 20.9434 94.5518 19.3027C92.9111 17.6504 92.0908 15.6641 92.0908 13.3438C92.0908 11.0352 92.9111 9.05469 94.5518 7.40234C96.2041 5.76172 98.1904 4.94141 100.511 4.94141C102.409 4.94141 104.114 5.52148 105.626 6.68164C106.083 7.0332 106.599 7.16797 107.173 7.08594C107.735 7.01562 108.192 6.75195 108.544 6.29492C108.896 5.83789 109.036 5.32812 108.966 4.76562C108.884 4.19141 108.614 3.72852 108.157 3.37695C105.907 1.64258 103.358 0.775391 100.511 0.775391C97.042 0.775391 94.0771 2.00586 91.6162 4.4668C89.1553 6.91602 87.9248 9.875 87.9248 13.3438C87.9248 16.8125 89.1553 19.7773 91.6162 22.2383C94.0771 24.6992 97.042 25.9297 100.511 25.9297ZM122.765 16.5078L126.14 8.35156L129.532 16.5078H122.765ZM116.665 25.8418C116.923 25.9473 117.187 26 117.456 26C118.382 26 119.021 25.5723 119.372 24.7168L121.06 20.6387H131.237L132.925 24.7168C133.276 25.5723 133.915 26 134.841 26C135.11 26 135.374 25.9473 135.632 25.8418C136.159 25.6191 136.534 25.2441 136.757 24.7168C136.968 24.1895 136.968 23.6621 136.757 23.1348L134.524 17.7734C134.524 17.7734 134.524 17.7676 134.524 17.7559L128.056 2.14648C128.032 2.08789 128.003 2.0293 127.968 1.9707C127.968 1.95898 127.95 1.92969 127.915 1.88281C127.88 1.83594 127.862 1.80664 127.862 1.79492C127.862 1.7832 127.839 1.75391 127.792 1.70703L127.739 1.63672C127.739 1.625 127.716 1.5957 127.669 1.54883C127.634 1.51367 127.616 1.49023 127.616 1.47852C127.593 1.4668 127.563 1.44336 127.528 1.4082C127.493 1.37305 127.47 1.35547 127.458 1.35547C127.446 1.34375 127.417 1.32031 127.37 1.28516C127.323 1.25 127.3 1.23242 127.3 1.23242C127.288 1.2207 127.253 1.19727 127.194 1.16211C127.136 1.12695 127.112 1.11523 127.124 1.12695C127.007 1.05664 126.878 1.00391 126.737 0.96875C126.761 0.96875 126.737 0.962891 126.667 0.951172C126.608 0.927734 126.567 0.916016 126.544 0.916016C126.544 0.916016 126.515 0.910156 126.456 0.898438C126.386 0.886719 126.351 0.880859 126.351 0.880859C126.351 0.880859 126.315 0.880859 126.245 0.880859C126.198 0.880859 126.163 0.880859 126.14 0.880859C126.128 0.880859 126.099 0.880859 126.052 0.880859C125.993 0.880859 125.958 0.880859 125.946 0.880859C125.946 0.880859 125.917 0.886719 125.858 0.898438C125.8 0.910156 125.759 0.916016 125.735 0.916016L125.665 0.933594C125.595 0.957031 125.554 0.96875 125.542 0.96875C125.519 0.980469 125.478 0.992187 125.419 1.00391C125.349 1.03906 125.325 1.05078 125.349 1.03906C125.372 1.02734 125.354 1.03906 125.296 1.07422C125.237 1.09766 125.196 1.11523 125.173 1.12695C125.161 1.12695 125.126 1.14453 125.067 1.17969C125.021 1.21484 124.997 1.23242 124.997 1.23242C124.985 1.24414 124.956 1.26758 124.909 1.30273C124.851 1.33789 124.827 1.35547 124.839 1.35547C124.827 1.35547 124.798 1.37891 124.751 1.42578C124.716 1.44922 124.692 1.4668 124.681 1.47852C124.681 1.49023 124.657 1.51953 124.61 1.56641C124.575 1.60156 124.558 1.625 124.558 1.63672C124.546 1.64844 124.522 1.67188 124.487 1.70703C124.452 1.75391 124.435 1.7832 124.435 1.79492C124.423 1.80664 124.399 1.83594 124.364 1.88281C124.341 1.94141 124.329 1.9707 124.329 1.9707C124.294 2.0293 124.265 2.08789 124.241 2.14648L117.772 17.7559C117.772 17.7676 117.772 17.7734 117.772 17.7734L115.54 23.1348C115.329 23.6621 115.329 24.1895 115.54 24.7168C115.763 25.2441 116.138 25.6191 116.665 25.8418ZM145.915 11.2695V4.88867H151.118C152.138 4.88867 153.011 5.19922 153.737 5.82031C154.464 6.44141 154.827 7.19727 154.827 8.08789C154.827 8.94336 154.481 9.68164 153.79 10.3027C153.087 10.9121 152.243 11.2344 151.259 11.2695H145.915ZM158.958 8.08789C158.958 6.06055 158.19 4.33203 156.655 2.90234C155.132 1.47266 153.286 0.757812 151.118 0.757812H143.841C143.278 0.757812 142.792 0.962891 142.382 1.37305C141.983 1.77148 141.784 2.25781 141.784 2.83203V23.7852C141.784 24.3477 141.983 24.834 142.382 25.2441C142.792 25.6426 143.278 25.8418 143.841 25.8418C144.415 25.8418 144.901 25.6426 145.3 25.2441C145.71 24.834 145.915 24.3477 145.915 23.7852V15.4004H149.483L154.142 24.8398C154.517 25.6133 155.132 26 155.987 26C156.304 26 156.608 25.9297 156.901 25.7891C157.417 25.5312 157.763 25.1328 157.938 24.5938C158.126 24.0547 158.097 23.5332 157.851 23.0293L153.86 14.9434C155.372 14.416 156.591 13.5312 157.517 12.2891C158.478 11.0352 158.958 9.63477 158.958 8.08789ZM169.153 21.834V15.4531H176.817C177.392 15.4531 177.884 15.2539 178.294 14.8555C178.704 14.4453 178.909 13.9531 178.909 13.3789C178.909 12.8047 178.704 12.3125 178.294 11.9023C177.884 11.5039 177.392 11.3047 176.817 11.3047H169.153V4.92383L179.771 4.95898H179.788C180.362 4.95898 180.849 4.75391 181.247 4.34375C181.657 3.94531 181.862 3.45898 181.862 2.88477C181.862 2.31055 181.663 1.81836 181.265 1.4082C180.854 0.998047 180.362 0.792969 179.788 0.792969L167.079 0.757812H167.062C166.487 0.757812 166.001 0.962891 165.603 1.37305C165.192 1.77148 164.987 2.26367 164.987 2.84961V23.9258C164.987 24.5 165.192 24.9863 165.603 25.3848C166.001 25.7949 166.487 26 167.062 26H179.788C180.362 26 180.849 25.7949 181.247 25.3848C181.657 24.9863 181.862 24.5 181.862 23.9258C181.862 23.3516 181.657 22.8594 181.247 22.4492C180.849 22.0391 180.362 21.834 179.788 21.834H169.153ZM192.216 23.9258C192.216 24.5 192.421 24.9922 192.831 25.4023C193.229 25.8008 193.716 26 194.29 26C194.864 26 195.351 25.8008 195.749 25.4023C196.159 24.9922 196.364 24.5 196.364 23.9258V4.90625H201.603C202.165 4.90625 202.651 4.70117 203.062 4.29102C203.46 3.89258 203.659 3.40625 203.659 2.83203C203.659 2.25781 203.46 1.77148 203.062 1.37305C202.651 0.962891 202.165 0.757812 201.603 0.757812H186.995C186.421 0.757812 185.929 0.962891 185.519 1.37305C185.12 1.77148 184.921 2.25781 184.921 2.83203C184.921 3.40625 185.12 3.89258 185.519 4.29102C185.929 4.70117 186.421 4.90625 186.995 4.90625H192.216V23.9258ZM223.997 18.4941C224.079 16.7129 223.493 15.1602 222.239 13.8359C220.716 12.2188 218.519 11.3867 215.647 11.3398H215.56C213.849 11.3164 212.63 10.9238 211.903 10.1621C211.446 9.66992 211.229 9.11914 211.253 8.50977C211.3 7.51367 211.716 6.66992 212.501 5.97852C213.298 5.28711 214.247 4.94141 215.349 4.94141C216.427 4.94141 217.382 5.13477 218.214 5.52148C219.163 5.9668 219.743 6.58203 219.954 7.36719C220.095 7.91797 220.411 8.33984 220.903 8.63281C221.396 8.91406 221.917 8.98438 222.468 8.84375C223.019 8.70312 223.435 8.38672 223.716 7.89453C224.009 7.40234 224.085 6.88086 223.944 6.33008C223.452 4.45508 222.298 3.02539 220.481 2.04102C218.97 1.2207 217.259 0.810547 215.349 0.810547C213.134 0.810547 211.235 1.53711 209.653 2.99023C208.071 4.44336 207.233 6.22461 207.14 8.33398C207.058 10.1035 207.644 11.6562 208.897 12.9922C210.421 14.5977 212.618 15.4238 215.489 15.4707C215.501 15.4707 215.513 15.4707 215.524 15.4707C215.501 15.4707 215.513 15.4707 215.56 15.4707H215.577C217.288 15.4941 218.507 15.8926 219.233 16.666C219.69 17.1465 219.907 17.6914 219.884 18.3008C219.837 19.3086 219.415 20.1523 218.618 20.832C217.833 21.5234 216.89 21.8691 215.788 21.8691C214.71 21.8691 213.749 21.6758 212.905 21.2891C211.968 20.8438 211.394 20.2285 211.183 19.4434C211.042 18.8926 210.726 18.4707 210.233 18.1777C209.741 17.8965 209.22 17.8262 208.669 17.9668C208.118 18.1074 207.696 18.4238 207.403 18.916C207.122 19.4082 207.052 19.9297 207.192 20.4805C207.685 22.3555 208.839 23.7852 210.655 24.7695C212.167 25.5898 213.878 26 215.788 26C217.991 26 219.89 25.2734 221.483 23.8203C223.065 22.3672 223.903 20.5918 223.997 18.4941Z" fill="white"/>
</svg>
