<svg width="39" height="41" viewBox="0 0 39 41" fill="none" xmlns="http://www.w3.org/2000/svg">
<path d="M29.8335 25.3047H14.8786C14.6305 25.3051 14.3896 25.2129 14.1955 25.043C14.0014 24.8732 13.8656 24.6359 13.8106 24.3702L11.2924 12.32C11.2556 12.144 11.2554 11.9611 11.2918 11.785C11.3282 11.6089 11.4003 11.444 11.5027 11.3027C11.6052 11.1614 11.7353 11.0473 11.8834 10.9689C12.0315 10.8905 12.1939 10.8498 12.3583 10.8498H32.3538C32.5184 10.8494 32.681 10.8899 32.8294 10.9681C32.9778 11.0464 33.1082 11.1604 33.2109 11.3018C33.3136 11.4431 33.3859 11.6081 33.4224 11.7844C33.4589 11.9607 33.4587 12.1438 33.4219 12.32L30.8994 24.3702C30.8444 24.6355 30.709 24.8725 30.5153 25.0423C30.3217 25.2121 30.0813 25.3046 29.8335 25.3047ZM15.7491 22.9023H28.963L30.9803 13.2545H13.7311L15.7491 22.9023Z" fill="white"/>
<path d="M17.0187 36.0352C16.1899 36.0352 15.3797 35.7652 14.6905 35.2594C14.0014 34.7537 13.4643 34.0348 13.1471 33.1937C12.8299 32.3526 12.747 31.4272 12.9086 30.5343C13.0703 29.6414 13.4695 28.8213 14.0555 28.1775C14.6416 27.5338 15.3883 27.0954 16.2011 26.9178C17.014 26.7402 17.8566 26.8314 18.6223 27.1798C19.388 27.5281 20.0425 28.1181 20.503 28.875C20.9634 29.632 21.2092 30.5219 21.2092 31.4323C21.2081 32.6526 20.7662 33.8227 19.9806 34.6856C19.1949 35.5485 18.1297 36.0339 17.0187 36.0352ZM17.0187 29.2325C16.6224 29.2325 16.235 29.3616 15.9056 29.6034C15.5761 29.8453 15.3193 30.189 15.1677 30.5911C15.0161 30.9933 14.9764 31.4358 15.0538 31.8627C15.1312 32.2896 15.322 32.6817 15.6023 32.9894C15.8826 33.2971 16.2396 33.5066 16.6283 33.5914C17.0169 33.6762 17.4198 33.6326 17.7859 33.4659C18.1519 33.2992 18.4648 33.017 18.6848 32.655C18.9049 32.2931 19.0222 31.8675 19.0221 31.4323C19.0215 30.8489 18.8102 30.2897 18.4346 29.8772C18.059 29.4648 17.5498 29.2329 17.0187 29.2325Z" fill="white"/>
<path d="M27.6935 36.0352C26.8647 36.0352 26.0545 35.7652 25.3653 35.2594C24.6762 34.7537 24.1391 34.0348 23.8219 33.1937C23.5047 32.3526 23.4218 31.4272 23.5835 30.5343C23.7451 29.6414 24.1443 28.8213 24.7303 28.1775C25.3164 27.5338 26.0631 27.0954 26.8759 26.9178C27.6888 26.7402 28.5314 26.8314 29.2971 27.1798C30.0629 27.5281 30.7173 28.1181 31.1778 28.875C31.6383 29.632 31.884 30.5219 31.884 31.4323C31.8829 32.6526 31.441 33.8227 30.6554 34.6856C29.8697 35.5485 28.8045 36.0339 27.6935 36.0352ZM27.6935 29.2325C27.2972 29.2325 26.9098 29.3616 26.5804 29.6034C26.2509 29.8453 25.9941 30.189 25.8425 30.5911C25.6909 30.9933 25.6513 31.4358 25.7286 31.8627C25.806 32.2896 25.9969 32.6817 26.2771 32.9894C26.5574 33.2971 26.9144 33.5066 27.3031 33.5914C27.6918 33.6762 28.0946 33.6326 28.4607 33.4659C28.8267 33.2992 29.1396 33.017 29.3596 32.655C29.5797 32.2931 29.697 31.8675 29.6969 31.4323C29.6963 30.8489 29.485 30.2897 29.1094 29.8772C28.7338 29.4648 28.2246 29.2329 27.6935 29.2325Z" fill="white"/>
<path d="M12.3585 13.2521C12.1289 13.2521 11.9052 13.1727 11.719 13.0253C11.5328 12.8778 11.3936 12.6697 11.3211 12.4305L9.44669 6.24609H5.9881C5.69807 6.24609 5.41991 6.11954 5.21483 5.89428C5.00975 5.66902 4.89453 5.36349 4.89453 5.04492C4.89453 4.72635 5.00975 4.42083 5.21483 4.19557C5.41991 3.9703 5.69807 3.84375 5.9881 3.84375H10.2384C10.468 3.84377 10.6917 3.92314 10.8779 4.0706C11.0641 4.21806 11.2033 4.42614 11.2759 4.66535L13.3996 11.6714C13.4543 11.8519 13.4692 12.0442 13.4431 12.2323C13.4169 12.4204 13.3504 12.599 13.2491 12.7534C13.1478 12.9077 13.0146 13.0335 12.8604 13.1202C12.7061 13.2069 12.5354 13.2521 12.3621 13.2521H12.3585Z" fill="white"/>
</svg>
