<svg width="38" height="38" viewBox="0 0 38 38" fill="none" xmlns="http://www.w3.org/2000/svg">
<path d="M25.3154 18.4387C26.9208 17.0961 28.0867 15.2671 28.652 13.2044C29.2174 11.1416 29.1543 8.94682 28.4716 6.923C27.7889 4.89919 26.5201 3.14621 24.8406 1.90612C23.161 0.666028 21.1535 0 19.0952 0C17.0369 0 15.0294 0.666028 13.3498 1.90612C11.6703 3.14621 10.4015 4.89919 9.71881 6.923C9.03608 8.94682 8.97304 11.1416 9.5384 13.2044C10.1038 15.2671 11.2696 17.0961 12.875 18.4387C9.36214 19.7704 6.32723 22.1959 4.18183 25.3863C2.03644 28.5767 0.88436 32.3775 0.881836 36.2735V38H37.3251V36.2735C37.3214 32.3755 36.1669 28.5731 34.0184 25.3824C31.8698 22.1918 28.8314 19.7675 25.3154 18.4387ZM12.4774 10.3759C12.4774 9.00998 12.866 7.67477 13.5941 6.53908C14.3222 5.40339 15.3571 4.51823 16.5678 3.99553C17.7786 3.47282 19.1108 3.33606 20.3962 3.60253C21.6815 3.869 22.8621 4.52674 23.7888 5.49256C24.7155 6.45839 25.3466 7.68893 25.6022 9.02857C25.8579 10.3682 25.7267 11.7568 25.2252 13.0187C24.7237 14.2806 23.8744 15.3592 22.7847 16.118C21.6951 16.8769 20.414 17.2819 19.1035 17.2819C17.3461 17.2819 15.6608 16.5543 14.4182 15.2592C13.1755 13.964 12.4774 12.2075 12.4774 10.3759ZM4.29425 34.547C4.69926 30.7463 6.43477 27.2347 9.16863 24.6842C11.9025 22.1338 15.4427 20.7236 19.1118 20.7236C22.7808 20.7236 26.321 22.1338 29.0549 24.6842C31.7888 27.2347 33.5243 30.7463 33.9293 34.547H4.29425Z" fill="white"/>
</svg>
