<svg width="25" height="19" viewBox="0 0 25 19" fill="none" xmlns="http://www.w3.org/2000/svg">
<rect width="25" height="19" rx="9.5" fill="white"/>
<path d="M11.7031 12.877C11.7148 12.8887 11.7266 12.9004 11.7383 12.9121C11.75 12.9199 11.7578 12.9258 11.7617 12.9297C11.7734 12.9375 11.7871 12.9453 11.8027 12.9531C11.8145 12.9609 11.8223 12.9668 11.8262 12.9707C11.8379 12.9746 11.8535 12.9805 11.873 12.9883C11.8887 12.9922 11.8965 12.9941 11.8965 12.9941C11.9199 12.998 11.9434 13 11.9668 13C11.9863 13 12.0078 12.998 12.0312 12.9941C12.0352 12.9941 12.043 12.9922 12.0547 12.9883C12.0703 12.9844 12.084 12.9805 12.0957 12.9766C12.1035 12.9727 12.1113 12.9688 12.1191 12.9648C12.1309 12.9609 12.1426 12.9551 12.1543 12.9473C12.1621 12.9434 12.168 12.9395 12.1719 12.9355C12.1875 12.9238 12.1914 12.9199 12.1836 12.9238C12.1758 12.9316 12.1816 12.9277 12.2012 12.9121C12.2129 12.9004 12.2207 12.8926 12.2246 12.8887C12.2324 12.8809 12.2402 12.8711 12.248 12.8594C12.2559 12.8477 12.2617 12.8379 12.2656 12.8301C12.2734 12.8223 12.2793 12.8125 12.2832 12.8008C12.2871 12.7891 12.291 12.7793 12.2949 12.7715C12.2988 12.7637 12.3027 12.752 12.3066 12.7363C12.3105 12.7246 12.3125 12.7148 12.3125 12.707C12.3164 12.6953 12.3184 12.6836 12.3184 12.6719C12.3184 12.6484 12.3184 12.6406 12.3184 12.6484V4.93164C12.3184 4.83398 12.2852 4.75195 12.2188 4.68555C12.1484 4.61523 12.0645 4.58008 11.9668 4.58008C11.873 4.58008 11.791 4.61523 11.7207 4.68555C11.6543 4.75195 11.6211 4.83398 11.6211 4.93164V11.623L6.25391 4.71484C6.15234 4.58203 6.02148 4.54297 5.86133 4.59766C5.70508 4.65234 5.62695 4.76367 5.62695 4.93164V12.6484C5.62695 12.7461 5.66211 12.8281 5.73242 12.8945C5.79883 12.9648 5.88086 13 5.97852 13C6.07617 13 6.1582 12.9648 6.22461 12.8945C6.29492 12.8281 6.33008 12.7461 6.33008 12.6484V5.95703L11.6914 12.8652C11.6914 12.8652 11.6934 12.8672 11.6973 12.8711C11.7012 12.875 11.7031 12.877 11.7031 12.877ZM19.5254 10.498C19.5527 9.9043 19.3574 9.38672 18.9395 8.94531C18.4316 8.40625 17.6992 8.12891 16.7422 8.11328H16.7129C16.1426 8.10547 15.7363 7.97461 15.4941 7.7207C15.3418 7.55664 15.2695 7.37305 15.2773 7.16992C15.293 6.83789 15.4316 6.55664 15.6934 6.32617C15.959 6.0957 16.2754 5.98047 16.6426 5.98047C17.002 5.98047 17.3203 6.04492 17.5977 6.17383C17.9141 6.32227 18.1074 6.52734 18.1777 6.78906C18.2246 6.97266 18.3301 7.11328 18.4941 7.21094C18.6582 7.30469 18.832 7.32812 19.0156 7.28125C19.1992 7.23438 19.3379 7.12891 19.4316 6.96484C19.5293 6.80078 19.5547 6.62695 19.5078 6.44336C19.3438 5.81836 18.959 5.3418 18.3535 5.01367C17.8496 4.74023 17.2793 4.60352 16.6426 4.60352C15.9043 4.60352 15.2715 4.8457 14.7441 5.33008C14.2168 5.81445 13.9375 6.4082 13.9062 7.11133C13.8789 7.70117 14.0742 8.21875 14.4922 8.66406C15 9.19922 15.7324 9.47461 16.6895 9.49023C16.6934 9.49023 16.6973 9.49023 16.7012 9.49023C16.6934 9.49023 16.6973 9.49023 16.7129 9.49023H16.7188C17.2891 9.49805 17.6953 9.63086 17.9375 9.88867C18.0898 10.0488 18.1621 10.2305 18.1543 10.4336C18.1387 10.7695 17.998 11.0508 17.7324 11.2773C17.4707 11.5078 17.1562 11.623 16.7891 11.623C16.4297 11.623 16.1094 11.5586 15.8281 11.4297C15.5156 11.2812 15.3242 11.0762 15.2539 10.8145C15.207 10.6309 15.1016 10.4902 14.9375 10.3926C14.7734 10.2988 14.5996 10.2754 14.416 10.3223C14.2324 10.3691 14.0918 10.4746 13.9941 10.6387C13.9004 10.8027 13.877 10.9766 13.9238 11.1602C14.0879 11.7852 14.4727 12.2617 15.0781 12.5898C15.582 12.8633 16.1523 13 16.7891 13C17.5234 13 18.1562 12.7578 18.6875 12.2734C19.2148 11.7891 19.4941 11.1973 19.5254 10.498Z" fill="black"/>
</svg>
