<svg width="92" height="54" viewBox="0 0 92 54" fill="none" xmlns="http://www.w3.org/2000/svg">
<rect width="70" height="53.2" rx="20" fill="black"/>
<path d="M31.8125 42.5078C31.8594 42.5547 31.9062 42.6016 31.9531 42.6484C32 42.6797 32.0312 42.7031 32.0469 42.7188C32.0938 42.75 32.1484 42.7812 32.2109 42.8125C32.2578 42.8438 32.2891 42.8672 32.3047 42.8828C32.3516 42.8984 32.4141 42.9219 32.4922 42.9531C32.5547 42.9688 32.5859 42.9766 32.5859 42.9766C32.6797 42.9922 32.7734 43 32.8672 43C32.9453 43 33.0312 42.9922 33.125 42.9766C33.1406 42.9766 33.1719 42.9688 33.2188 42.9531C33.2812 42.9375 33.3359 42.9219 33.3828 42.9062C33.4141 42.8906 33.4453 42.875 33.4766 42.8594C33.5234 42.8438 33.5703 42.8203 33.6172 42.7891C33.6484 42.7734 33.6719 42.7578 33.6875 42.7422C33.75 42.6953 33.7656 42.6797 33.7344 42.6953C33.7031 42.7266 33.7266 42.7109 33.8047 42.6484C33.8516 42.6016 33.8828 42.5703 33.8984 42.5547C33.9297 42.5234 33.9609 42.4844 33.9922 42.4375C34.0234 42.3906 34.0469 42.3516 34.0625 42.3203C34.0938 42.2891 34.1172 42.25 34.1328 42.2031C34.1484 42.1562 34.1641 42.1172 34.1797 42.0859C34.1953 42.0547 34.2109 42.0078 34.2266 41.9453C34.2422 41.8984 34.25 41.8594 34.25 41.8281C34.2656 41.7812 34.2734 41.7344 34.2734 41.6875C34.2734 41.5938 34.2734 41.5625 34.2734 41.5938V10.7266C34.2734 10.3359 34.1406 10.0078 33.875 9.74219C33.5938 9.46094 33.2578 9.32031 32.8672 9.32031C32.4922 9.32031 32.1641 9.46094 31.8828 9.74219C31.6172 10.0078 31.4844 10.3359 31.4844 10.7266V37.4922L10.0156 9.85938C9.60938 9.32812 9.08594 9.17188 8.44531 9.39062C7.82031 9.60937 7.50781 10.0547 7.50781 10.7266V41.5938C7.50781 41.9844 7.64844 42.3125 7.92969 42.5781C8.19531 42.8594 8.52344 43 8.91406 43C9.30469 43 9.63281 42.8594 9.89844 42.5781C10.1797 42.3125 10.3203 41.9844 10.3203 41.5938V14.8281L31.7656 42.4609C31.7656 42.4609 31.7734 42.4688 31.7891 42.4844C31.8047 42.5 31.8125 42.5078 31.8125 42.5078ZM63.1016 32.9922C63.2109 30.6172 62.4297 28.5469 60.7578 26.7812C58.7266 24.625 55.7969 23.5156 51.9688 23.4531H51.8516C49.5703 23.4219 47.9453 22.8984 46.9766 21.8828C46.3672 21.2266 46.0781 20.4922 46.1094 19.6797C46.1719 18.3516 46.7266 17.2266 47.7734 16.3047C48.8359 15.3828 50.1016 14.9219 51.5703 14.9219C53.0078 14.9219 54.2812 15.1797 55.3906 15.6953C56.6562 16.2891 57.4297 17.1094 57.7109 18.1562C57.8984 18.8906 58.3203 19.4531 58.9766 19.8438C59.6328 20.2188 60.3281 20.3125 61.0625 20.125C61.7969 19.9375 62.3516 19.5156 62.7266 18.8594C63.1172 18.2031 63.2188 17.5078 63.0312 16.7734C62.375 14.2734 60.8359 12.3672 58.4141 11.0547C56.3984 9.96094 54.1172 9.41406 51.5703 9.41406C48.6172 9.41406 46.0859 10.3828 43.9766 12.3203C41.8672 14.2578 40.75 16.6328 40.625 19.4453C40.5156 21.8047 41.2969 23.875 42.9688 25.6562C45 27.7969 47.9297 28.8984 51.7578 28.9609C51.7734 28.9609 51.7891 28.9609 51.8047 28.9609C51.7734 28.9609 51.7891 28.9609 51.8516 28.9609H51.875C54.1562 28.9922 55.7812 29.5234 56.75 30.5547C57.3594 31.1953 57.6484 31.9219 57.6172 32.7344C57.5547 34.0781 56.9922 35.2031 55.9297 36.1094C54.8828 37.0312 53.625 37.4922 52.1562 37.4922C50.7188 37.4922 49.4375 37.2344 48.3125 36.7188C47.0625 36.125 46.2969 35.3047 46.0156 34.2578C45.8281 33.5234 45.4062 32.9609 44.75 32.5703C44.0938 32.1953 43.3984 32.1016 42.6641 32.2891C41.9297 32.4766 41.3672 32.8984 40.9766 33.5547C40.6016 34.2109 40.5078 34.9062 40.6953 35.6406C41.3516 38.1406 42.8906 40.0469 45.3125 41.3594C47.3281 42.4531 49.6094 43 52.1562 43C55.0938 43 57.625 42.0312 59.75 40.0938C61.8594 38.1562 62.9766 35.7891 63.1016 32.9922Z" fill="white"/>
</svg>
